# xmcd CD database file
#
# Track frame offsets:
#	150
#	22278
#	48121
#	74525
#	95612
#	123789
#	146924
#	174374
#	209006
#	236240
#
# Disc length: 3278 seconds
#
# Revision: 0
# Processed by: cddbd v1.5.2PL0 Copyright (c) Steve Scherf et al.
# Submitted via: CDex 1.51
#
DISCID=980ccc0a
DTITLE=Vince Mai - For all we Know
DYEAR=2000
DGENRE=Jazz
TTITLE0=01 I cover the waterfront
TTITLE1=02 Triste
TTITLE2=03 It might as well be Spring
TTITLE3=04 For all we know
TTITLE4=05 Stella by Starlight
TTITLE5=06 Teach me Tonight
TTITLE6=07 A time for Love
TTITLE7=08 Why didn't you tell me
TTITLE8=09 Sentimental reasons
TTITLE9=10 All the things you are
EXTD=YEAR: 2000
EXTT0=
EXTT1=
EXTT2=
EXTT3=
EXTT4=
EXTT5=
EXTT6=
EXTT7=
EXTT8=
EXTT9=
PLAYORDER=
